<mxfile host="65bd71144e">
    <diagram id="IVuzKlSdGC36JYRlJGeh" name="Page-1">
        <mxGraphModel dx="633" dy="681" grid="1" gridSize="10" guides="1" tooltips="1" connect="1" arrows="1" fold="1" page="1" pageScale="1" pageWidth="850" pageHeight="1100" math="0" shadow="0">
            <root>
                <mxCell id="0"/>
                <mxCell id="1" parent="0"/>
                <mxCell id="58" value="" style="shape=umlLifeline;participant=umlActor;perimeter=lifelinePerimeter;whiteSpace=wrap;html=1;container=1;collapsible=0;recursiveResize=0;verticalAlign=top;spacingTop=36;outlineConnect=0;size=70;" vertex="1" parent="1">
                    <mxGeometry x="295" y="210" width="40" height="460" as="geometry"/>
                </mxCell>
                <mxCell id="59" value="" style="html=1;points=[];perimeter=orthogonalPerimeter;fillColor=#f5f5f5;gradientColor=#b3b3b3;strokeColor=#666666;" vertex="1" parent="58">
                    <mxGeometry x="15" y="230" width="10" height="110" as="geometry"/>
                </mxCell>
                <mxCell id="60" value="&lt;font style=&quot;font-size: 20px;&quot;&gt;Web UI&lt;/font&gt;" style="shape=umlLifeline;perimeter=lifelinePerimeter;whiteSpace=wrap;html=1;container=1;collapsible=0;recursiveResize=0;outlineConnect=0;size=60;" vertex="1" parent="1">
                    <mxGeometry x="395" y="210" width="125" height="460" as="geometry"/>
                </mxCell>
                <mxCell id="61" value="request for password reset" style="html=1;verticalAlign=bottom;endArrow=block;entryX=-0.084;entryY=0.029;entryDx=0;entryDy=0;entryPerimeter=0;labelBackgroundColor=none;" edge="1" parent="60" source="62">
                    <mxGeometry width="80" relative="1" as="geometry">
                        <mxPoint x="60" y="130" as="sourcePoint"/>
                        <mxPoint x="223.16000000000008" y="130.14999999999998" as="targetPoint"/>
                    </mxGeometry>
                </mxCell>
                <mxCell id="62" value="" style="html=1;points=[];perimeter=orthogonalPerimeter;verticalAlign=middle;fillStyle=auto;rounded=0;glass=0;shadow=0;fillColor=#f5f5f5;gradientColor=#b3b3b3;strokeColor=#666666;" vertex="1" parent="60">
                    <mxGeometry x="57.5" y="114" width="10" height="20" as="geometry"/>
                </mxCell>
                <mxCell id="63" value="" style="html=1;points=[];perimeter=orthogonalPerimeter;fillColor=#f5f5f5;gradientColor=#b3b3b3;strokeColor=#666666;" vertex="1" parent="60">
                    <mxGeometry x="57.5" y="230" width="10" height="110" as="geometry"/>
                </mxCell>
                <mxCell id="64" value="&lt;font style=&quot;&quot;&gt;&lt;font style=&quot;font-size: 20px;&quot;&gt;Middleware&lt;/font&gt;&lt;br&gt;&lt;/font&gt;" style="shape=umlLifeline;perimeter=lifelinePerimeter;whiteSpace=wrap;html=1;container=1;collapsible=0;recursiveResize=0;outlineConnect=0;size=60;" vertex="1" parent="1">
                    <mxGeometry x="554" y="210" width="140" height="460" as="geometry"/>
                </mxCell>
                <mxCell id="65" value="" style="html=1;points=[];perimeter=orthogonalPerimeter;fontSize=11;fillColor=#f5f5f5;gradientColor=#b3b3b3;strokeColor=#666666;" vertex="1" parent="64">
                    <mxGeometry x="65" y="124.5" width="10" height="22.5" as="geometry"/>
                </mxCell>
                <mxCell id="66" value="" style="html=1;points=[];perimeter=orthogonalPerimeter;fontSize=11;fillColor=#f5f5f5;gradientColor=#b3b3b3;strokeColor=#666666;" vertex="1" parent="64">
                    <mxGeometry x="65" y="247" width="10" height="23" as="geometry"/>
                </mxCell>
                <mxCell id="67" value="send new password" style="html=1;verticalAlign=bottom;endArrow=block;entryX=-0.084;entryY=0.029;entryDx=0;entryDy=0;entryPerimeter=0;labelBackgroundColor=none;" edge="1" parent="64">
                    <mxGeometry width="80" relative="1" as="geometry">
                        <mxPoint x="-94" y="250" as="sourcePoint"/>
                        <mxPoint x="65.00000000000011" y="250.14999999999998" as="targetPoint"/>
                    </mxGeometry>
                </mxCell>
                <mxCell id="91" value="response back" style="html=1;verticalAlign=bottom;endArrow=open;dashed=1;endSize=8;labelBackgroundColor=none;fontSize=9;" edge="1" parent="64" target="63">
                    <mxGeometry x="0.002" relative="1" as="geometry">
                        <mxPoint x="238.19999999999982" y="319" as="sourcePoint"/>
                        <mxPoint x="76" y="319" as="targetPoint"/>
                        <mxPoint as="offset"/>
                    </mxGeometry>
                </mxCell>
                <mxCell id="68" value="&lt;span style=&quot;font-size: 20px;&quot;&gt;Email&lt;br&gt;&lt;/span&gt;" style="shape=umlLifeline;perimeter=lifelinePerimeter;whiteSpace=wrap;html=1;container=1;collapsible=0;recursiveResize=0;outlineConnect=0;size=60;" vertex="1" parent="1">
                    <mxGeometry x="905" y="210" width="120" height="460" as="geometry"/>
                </mxCell>
                <mxCell id="85" value="&lt;font style=&quot;font-size: 11px;&quot;&gt;send the link of new password&lt;br&gt;&lt;/font&gt;" style="html=1;verticalAlign=bottom;endArrow=block;fontSize=14;labelBackgroundColor=none;entryX=-0.09;entryY=0.056;entryDx=0;entryDy=0;entryPerimeter=0;" edge="1" parent="68" target="86">
                    <mxGeometry x="0.0027" relative="1" as="geometry">
                        <mxPoint x="-101.5" y="181" as="sourcePoint"/>
                        <mxPoint x="62.5" y="181" as="targetPoint"/>
                        <mxPoint as="offset"/>
                    </mxGeometry>
                </mxCell>
                <mxCell id="86" value="" style="html=1;points=[];perimeter=orthogonalPerimeter;rounded=0;shadow=0;glass=0;sketch=0;fillStyle=auto;fontSize=14;fillColor=#f5f5f5;gradientColor=#b3b3b3;strokeColor=#666666;" vertex="1" parent="68">
                    <mxGeometry x="55" y="180" width="10" height="10" as="geometry"/>
                </mxCell>
                <mxCell id="87" value="&lt;font style=&quot;font-size: 11px;&quot;&gt;save new password in db&lt;br&gt;&lt;/font&gt;" style="html=1;verticalAlign=bottom;endArrow=block;fontSize=14;labelBackgroundColor=none;entryX=-0.09;entryY=0.056;entryDx=0;entryDy=0;entryPerimeter=0;" edge="1" parent="68">
                    <mxGeometry x="0.0027" relative="1" as="geometry">
                        <mxPoint x="-100.60000000000002" y="280" as="sourcePoint"/>
                        <mxPoint x="54.999999999999886" y="281.3520000000001" as="targetPoint"/>
                        <mxPoint as="offset"/>
                    </mxGeometry>
                </mxCell>
                <mxCell id="88" value="" style="html=1;points=[];perimeter=orthogonalPerimeter;rounded=0;shadow=0;glass=0;sketch=0;fillStyle=auto;fontSize=14;fillColor=#f5f5f5;gradientColor=#b3b3b3;strokeColor=#666666;" vertex="1" parent="68">
                    <mxGeometry x="55" y="280" width="10" height="30" as="geometry"/>
                </mxCell>
                <mxCell id="69" value="&lt;font style=&quot;font-size: 11px;&quot;&gt;user clicks on fp button&lt;/font&gt;" style="html=1;verticalAlign=bottom;endArrow=block;fontSize=22;labelBackgroundColor=none;" edge="1" parent="1" target="62">
                    <mxGeometry width="80" relative="1" as="geometry">
                        <mxPoint x="315" y="330" as="sourcePoint"/>
                        <mxPoint x="445" y="330" as="targetPoint"/>
                        <Array as="points"/>
                        <mxPoint as="offset"/>
                    </mxGeometry>
                </mxCell>
                <mxCell id="70" value="&lt;font style=&quot;font-size: 20px;&quot;&gt;Application Service&lt;/font&gt;" style="shape=umlLifeline;perimeter=lifelinePerimeter;whiteSpace=wrap;html=1;container=1;collapsible=0;recursiveResize=0;outlineConnect=0;size=60;" vertex="1" parent="1">
                    <mxGeometry x="735" y="210" width="127" height="460" as="geometry"/>
                </mxCell>
                <mxCell id="72" value="" style="html=1;points=[];perimeter=orthogonalPerimeter;rounded=0;shadow=0;glass=0;sketch=0;fillStyle=auto;fontSize=14;fillColor=#f5f5f5;gradientColor=#b3b3b3;strokeColor=#666666;" vertex="1" parent="70">
                    <mxGeometry x="58.5" y="140" width="10" height="42" as="geometry"/>
                </mxCell>
                <mxCell id="73" value="&lt;font style=&quot;font-size: 11px;&quot;&gt;check auth and pass the req&lt;br&gt;&lt;/font&gt;" style="html=1;verticalAlign=bottom;endArrow=block;fontSize=14;labelBackgroundColor=none;" edge="1" parent="70">
                    <mxGeometry relative="1" as="geometry">
                        <mxPoint x="-105" y="263" as="sourcePoint"/>
                        <mxPoint x="58.5" y="263" as="targetPoint"/>
                    </mxGeometry>
                </mxCell>
                <mxCell id="74" value="" style="html=1;points=[];perimeter=orthogonalPerimeter;rounded=0;shadow=0;glass=0;sketch=0;fillStyle=auto;fontSize=14;fillColor=#f5f5f5;gradientColor=#b3b3b3;strokeColor=#666666;" vertex="1" parent="70">
                    <mxGeometry x="58.5" y="260" width="10" height="60" as="geometry"/>
                </mxCell>
                <mxCell id="75" value="" style="html=1;points=[];perimeter=orthogonalPerimeter;fillColor=#f5f5f5;gradientColor=#b3b3b3;strokeColor=#666666;" vertex="1" parent="1">
                    <mxGeometry x="310" y="324" width="10" height="16" as="geometry"/>
                </mxCell>
                <mxCell id="76" value="&lt;font style=&quot;font-size: 11px;&quot;&gt;check JWTs and pass the request&lt;br&gt;&lt;/font&gt;" style="html=1;verticalAlign=bottom;endArrow=block;fontSize=14;labelBackgroundColor=none;" edge="1" parent="1">
                    <mxGeometry relative="1" as="geometry">
                        <mxPoint x="630" y="351" as="sourcePoint"/>
                        <mxPoint x="794" y="351" as="targetPoint"/>
                    </mxGeometry>
                </mxCell>
                <mxCell id="83" value="&lt;p style=&quot;line-height: 50%;&quot;&gt;&lt;span style=&quot;font-size: 11px;&quot;&gt;user clicks on link and enter&lt;/span&gt;&lt;br style=&quot;font-size: 11px;&quot;&gt;&lt;span style=&quot;font-size: 11px;&quot;&gt;new password&lt;/span&gt;&lt;br&gt;&lt;/p&gt;" style="html=1;verticalAlign=bottom;endArrow=block;fontSize=22;labelBackgroundColor=none;exitX=0.976;exitY=0.04;exitDx=0;exitDy=0;exitPerimeter=0;" edge="1" parent="1">
                    <mxGeometry x="0.0567" y="-18" width="80" relative="1" as="geometry">
                        <mxPoint x="319.76" y="442.3600000000001" as="sourcePoint"/>
                        <mxPoint x="453" y="442.4190000000001" as="targetPoint"/>
                        <Array as="points"/>
                        <mxPoint as="offset"/>
                    </mxGeometry>
                </mxCell>
                <mxCell id="90" value="&quot;ok&quot; message" style="html=1;verticalAlign=bottom;endArrow=open;dashed=1;endSize=8;labelBackgroundColor=none;fontSize=9;entryX=1.03;entryY=0.36;entryDx=0;entryDy=0;entryPerimeter=0;" edge="1" parent="1">
                    <mxGeometry x="0.002" relative="1" as="geometry">
                        <mxPoint x="960" y="518" as="sourcePoint"/>
                        <mxPoint x="803.8000000000002" y="518.4" as="targetPoint"/>
                        <mxPoint as="offset"/>
                    </mxGeometry>
                </mxCell>
                <mxCell id="93" value="show message and login again" style="html=1;verticalAlign=bottom;endArrow=open;dashed=1;endSize=8;labelBackgroundColor=none;fontSize=9;entryX=0.75;entryY=0.468;entryDx=0;entryDy=0;entryPerimeter=0;exitX=-0.244;exitY=0.898;exitDx=0;exitDy=0;exitPerimeter=0;" edge="1" parent="1" source="63">
                    <mxGeometry x="0.002" relative="1" as="geometry">
                        <mxPoint x="652.1999999999998" y="539" as="sourcePoint"/>
                        <mxPoint x="320" y="538.9200000000001" as="targetPoint"/>
                        <mxPoint as="offset"/>
                    </mxGeometry>
                </mxCell>
            </root>
        </mxGraphModel>
    </diagram>
</mxfile>